<svg width="512" height="512" viewBox="0 0 512 512" xmlns="http://www.w3.org/2000/svg">
  <!-- 渐变背景 -->
  <defs>
    <linearGradient id="bgGradient" x1="0%" y1="0%" x2="100%" y2="100%">
      <stop offset="0%" style="stop-color:#00d9ff;stop-opacity:1" />
      <stop offset="100%" style="stop-color:#7c3aed;stop-opacity:1" />
    </linearGradient>
    <linearGradient id="footprintGradient" x1="0%" y1="0%" x2="100%" y2="100%">
      <stop offset="0%" style="stop-color:#ffffff;stop-opacity:1" />
      <stop offset="100%" style="stop-color:#e0e7ff;stop-opacity:0.9" />
    </linearGradient>
  </defs>

  <!-- 圆角矩形背景 -->
  <rect width="512" height="512" rx="90" fill="url(#bgGradient)"/>

  <!-- 脚印图标 (代表 "One Small Step") -->
  <g transform="translate(256, 256)">
    <!-- 左脚印 -->
    <g transform="translate(-60, 30) rotate(-15)">
      <!-- 脚掌 -->
      <ellipse cx="0" cy="15" rx="35" ry="50" fill="url(#footprintGradient)" opacity="0.95"/>
      <!-- 脚趾 -->
      <circle cx="-15" cy="-25" r="10" fill="url(#footprintGradient)" opacity="0.9"/>
      <circle cx="0" cy="-30" r="11" fill="url(#footprintGradient)" opacity="0.95"/>
      <circle cx="15" cy="-28" r="10" fill="url(#footprintGradient)" opacity="0.9"/>
      <circle cx="25" cy="-20" r="9" fill="url(#footprintGradient)" opacity="0.85"/>
    </g>

    <!-- 右脚印（稍小，表示远处） -->
    <g transform="translate(40, -50) rotate(10) scale(0.85)">
      <!-- 脚掌 -->
      <ellipse cx="0" cy="15" rx="35" ry="50" fill="url(#footprintGradient)" opacity="0.85"/>
      <!-- 脚趾 -->
      <circle cx="-15" cy="-25" r="10" fill="url(#footprintGradient)" opacity="0.8"/>
      <circle cx="0" cy="-30" r="11" fill="url(#footprintGradient)" opacity="0.85"/>
      <circle cx="15" cy="-28" r="10" fill="url(#footprintGradient)" opacity="0.8"/>
      <circle cx="25" cy="-20" r="9" fill="url(#footprintGradient)" opacity="0.75"/>
    </g>
  </g>

  <!-- 装饰性小星星 -->
  <circle cx="100" cy="100" r="3" fill="white" opacity="0.6"/>
  <circle cx="420" cy="380" r="4" fill="white" opacity="0.5"/>
  <circle cx="380" cy="120" r="2.5" fill="white" opacity="0.7"/>
</svg>
